<svg width="577" height="130" viewBox="0 0 577 130" fill="none" xmlns="http://www.w3.org/2000/svg">
<g clip-path="url(#clip0_26_1242)">
<mask id="mask0_26_1242" style="mask-type:luminance" maskUnits="userSpaceOnUse" x="0" y="0" width="112" height="130">
<path d="M1.89124 53.4788H32.1511H76.8531H108.145C110.38 53.4788 110.895 54.5106 111.067 55.7143V94.2328C111.067 95.6085 111.411 97.1561 107.973 96.9841H77.025V126.733C77.025 128.452 76.5092 130 73.9303 130H34.5581C33.1827 129.828 32.8388 129.312 32.323 127.249V96.9841H3.43862C2.06317 96.9841 0.343862 96.6402 0 94.5767V55.1984C0.343862 53.9947 0.859654 53.6508 1.89124 53.4788ZM32.323 16.5079L12.551 22.3545L11.1755 17.8836L72.5548 0H77.025V49.0079H32.323V16.5079Z" fill="white"/>
</mask>
<g mask="url(#mask0_26_1242)">
<path d="M-2.69413e-05 -2.40735L-2.92285 130L111.239 132.407L114.162 5.8651e-05L-2.69413e-05 -2.40735Z" fill="url(#paint0_linear_26_1242)"/>
</g>
<mask id="mask1_26_1242" style="mask-type:luminance" maskUnits="userSpaceOnUse" x="140" y="52" width="437" height="57">
<path d="M569.091 95.7804L563.417 71.7063C563.245 71.0185 562.73 70.5026 562.214 70.5026C561.526 70.5026 561.182 70.8465 561.01 71.7063L555.337 95.7804C555.165 96.4682 554.821 96.8121 554.305 96.8121H548.459C547.772 96.8121 547.428 96.4682 547.428 95.7804C547.428 95.7804 547.428 95.6084 547.428 95.4365L554.133 69.8148C555.165 65.8598 557.744 63.9682 562.042 63.9682C566.34 63.9682 568.919 65.8598 569.951 69.8148L576.828 95.7804C576.828 96.4682 576.484 96.8121 575.796 96.8121H570.123C569.607 96.8121 569.263 96.4682 569.091 95.7804ZM533.845 89.5899V82.5397H530.235C528 82.5397 526.452 82.8836 525.421 83.5714C524.389 84.2592 523.873 85.4629 523.873 87.5264V87.6984C523.873 89.0741 524.217 89.9338 524.733 90.4497C525.249 90.9656 526.452 91.3095 528 91.3095C529.891 91.3095 531.782 90.6217 533.845 89.5899ZM541.41 95.6084C541.41 95.9524 541.238 96.1243 541.066 96.4682C540.894 96.6402 540.551 96.8121 540.207 96.8121H535.393C535.049 96.8121 534.877 96.6402 534.533 96.4682C534.361 96.2963 534.189 95.9524 534.189 95.6084V94.7486C531.438 96.4682 528.687 97.328 526.108 97.328C522.842 97.328 520.435 96.4682 518.715 94.9206C516.996 93.373 516.136 90.9656 516.136 87.6984V87.5264C516.136 84.2592 517.168 81.6799 519.403 80.1322C521.638 78.4127 525.249 77.7248 530.063 77.7248H533.673V75.1455C533.673 73.4259 533.329 72.0502 532.47 71.5344C531.61 70.8465 530.407 70.5026 528.687 70.5026C526.968 70.5026 525.249 70.5026 523.701 70.6746L519.403 71.0185H519.059C518.371 71.0185 518.028 70.6746 518.028 69.9867V66.3756C518.028 66.0317 518.2 65.6878 518.543 65.5158C518.887 65.3439 520.091 65 522.326 64.828C524.561 64.4841 526.624 64.4841 528.859 64.4841C537.284 64.4841 541.41 68.0952 541.41 75.4894V95.6084ZM500.147 79.7883L507.884 90.2778C510.635 93.8889 511.838 95.7804 512.01 95.9524C512.01 96.1243 512.01 96.1243 512.01 96.2963C512.01 96.8121 511.666 96.9841 511.15 96.9841H504.101C503.414 96.9841 502.898 96.4682 502.21 95.4365L493.442 82.5397V95.6084C493.442 95.9524 493.27 96.2963 493.098 96.4682C492.926 96.6402 492.582 96.8121 492.238 96.8121H486.908C486.564 96.8121 486.392 96.6402 486.049 96.4682C485.877 96.2963 485.705 95.9524 485.705 95.6084V65.5158C485.705 65.1719 485.877 65 486.049 64.6561C486.22 64.4841 486.564 64.3121 486.908 64.3121H492.238C492.582 64.3121 492.754 64.4841 493.098 64.6561C493.27 64.828 493.442 65.1719 493.442 65.5158V78.0688L499.631 69.8148C502.038 66.5476 503.242 64.828 503.413 64.828C503.585 64.6561 503.757 64.6561 503.929 64.4841C504.101 64.3121 504.445 64.3121 504.617 64.3121H510.978C511.494 64.3121 511.838 64.4841 511.838 65C511.838 65.1719 511.838 65.3439 511.666 65.5158L500.147 79.7883ZM478.484 95.6084C478.484 95.9524 478.312 96.1243 478.14 96.4682C477.968 96.6402 477.624 96.8121 477.28 96.8121H471.95C471.606 96.8121 471.434 96.6402 471.091 96.4682C470.919 96.2963 470.747 95.9524 470.747 95.6084V94.2328C467.996 96.1243 464.901 97.1561 461.806 97.1561C458.54 97.1561 455.961 96.2963 454.413 94.4047C452.694 92.5132 452.006 89.246 452.006 84.4312V65.6878C452.006 65.3439 452.178 65.1719 452.35 64.828C452.522 64.6561 452.866 64.4841 453.21 64.4841H458.54C458.883 64.4841 459.055 64.6561 459.399 64.828C459.571 65 459.743 65.3439 459.743 65.6878V84.4312C459.743 86.8386 460.087 88.5582 460.775 89.5899C461.462 90.6217 462.666 90.9656 464.729 90.9656C466.276 90.9656 468.34 90.2778 471.262 88.7301V65.6878C471.262 65.3439 471.434 65.1719 471.606 64.828C471.778 64.6561 472.122 64.4841 472.466 64.4841H477.796C478.14 64.4841 478.312 64.6561 478.655 64.828C478.827 65 478.999 65.3439 478.999 65.6878V95.6084H478.484ZM435.157 90.6217L430.687 73.7698C430.171 72.2222 429.999 71.3624 429.999 71.1905C429.827 71.0185 429.827 71.0185 429.655 70.8465C429.483 70.8465 429.311 70.6746 429.139 70.6746C428.967 70.6746 428.796 70.6746 428.624 70.8465C428.452 70.8465 428.452 71.0185 428.28 71.1905C428.28 71.3624 427.936 72.3942 427.42 74.4576L423.466 90.6217H435.157ZM439.799 96.8121H418.136V103.518C418.136 103.862 417.964 104.034 417.792 104.378C417.62 104.55 417.276 104.722 416.932 104.722H411.602C411.259 104.722 411.087 104.55 410.743 104.378C410.571 104.206 410.399 103.862 410.399 103.518V91.6534C410.399 91.3095 410.571 91.1375 410.743 90.7936C410.915 90.6217 411.259 90.4497 411.602 90.4497H415.557L421.059 69.8148C422.09 65.8598 424.841 63.9682 428.967 63.9682C433.266 63.9682 435.845 65.8598 436.876 69.8148L442.722 90.4497H445.989C446.332 90.4497 446.504 90.6217 446.848 90.7936C447.02 90.9656 447.192 91.3095 447.192 91.6534V103.518C447.192 103.862 447.02 104.034 446.848 104.378C446.676 104.55 446.332 104.722 445.989 104.722H440.659C440.315 104.722 440.143 104.55 439.799 104.378C439.627 104.206 439.455 103.862 439.455 103.518V96.8121H439.799ZM399.223 77.8968V77.7248C399.223 75.4894 398.708 73.7698 397.504 72.5661C396.473 71.3624 394.925 70.6746 393.206 70.6746C391.315 70.6746 389.939 71.3624 388.736 72.5661C387.532 73.7698 387.016 75.4894 387.016 77.7248V77.8968H399.223ZM406.96 81.8518C406.96 82.8836 406.616 83.2275 405.757 83.2275H387.016V83.3994C387.016 85.4629 387.532 87.1825 388.564 88.5582C389.595 89.9338 391.315 90.6217 393.894 90.6217C395.785 90.6217 397.504 90.6217 399.395 90.4497L404.381 90.1058H404.553C405.241 90.1058 405.585 90.4497 405.585 90.9656V94.7486C405.585 95.4365 405.413 95.9524 405.069 96.1243C404.725 96.2963 403.522 96.4682 401.459 96.8121C399.395 97.1561 396.644 97.328 393.378 97.328C389.423 97.328 386.157 96.1243 383.406 93.545C380.827 91.1375 379.451 87.5264 379.451 82.8836V78.5846C379.451 74.1137 380.655 70.5026 383.062 67.9233C385.469 65.3439 388.908 63.9682 393.206 63.9682C397.504 63.9682 400.771 65.3439 403.178 67.9233C405.585 70.5026 406.788 74.1137 406.788 78.5846V81.8518H406.96ZM372.402 95.9524C372.402 96.4682 372.058 96.8121 371.371 96.8121H365.525C365.353 96.8121 365.009 96.6402 364.837 96.4682C364.665 96.2963 364.493 95.9524 364.493 95.6084V68.955C364.493 68.6111 364.493 68.4391 364.321 68.4391C364.321 68.4391 363.978 69.127 363.29 70.3307L358.648 79.6164C358.304 80.4762 357.616 80.8201 356.756 80.8201H350.911C350.051 80.8201 349.363 80.4762 349.02 79.7883L344.721 71.3624C343.69 69.2989 343.174 68.4391 343.174 68.4391C343.002 68.4391 343.002 68.6111 343.002 68.955V95.6084C343.002 95.9524 342.83 96.1243 342.658 96.4682C342.486 96.6402 342.314 96.8121 341.97 96.8121H336.125C335.437 96.8121 335.093 96.4682 335.093 95.9524V56.4021C335.093 55.7143 335.265 55.1984 335.781 54.8545C336.297 54.3386 336.812 54.1666 337.328 54.1666H341.97C343.002 54.1666 343.69 54.6825 344.034 55.5423L349.879 67.5793C351.77 71.5344 352.802 73.5979 352.974 73.7698C353.146 73.9418 353.146 74.1137 353.318 74.1137C353.49 74.1137 353.662 73.9418 353.834 73.5979L361.055 59.1534C362.258 56.746 362.946 55.3703 363.118 55.1984C363.29 55.0264 363.462 54.8545 363.806 54.6825C364.15 54.5106 364.493 54.5106 364.837 54.5106H369.479C370.167 54.5106 370.683 54.6825 371.027 55.1984C371.543 55.7143 371.714 56.2301 371.714 56.746V95.9524H372.402ZM312.742 96.1243C312.742 96.6402 312.398 96.8121 311.883 96.8121H306.553C306.381 96.8121 306.209 96.6402 306.037 96.4682C305.865 96.2963 305.865 96.1243 305.865 95.9524V75.6614C305.865 75.3174 305.865 75.3174 305.693 75.3174C305.693 75.3174 305.521 75.3174 305.521 75.4894L302.598 80.8201C301.567 82.8836 300.879 83.9153 300.879 83.9153C300.879 84.0873 300.535 84.0873 300.363 84.2592C300.019 84.4312 299.847 84.4312 299.504 84.4312H294.174C293.314 84.4312 292.798 84.0873 292.454 83.7434L287.984 75.4894C287.984 75.4894 287.984 75.4894 287.812 75.3174L287.64 75.1455C287.468 75.1455 287.468 75.3174 287.468 75.4894V95.6084C287.468 95.7804 287.296 95.9524 287.124 96.1243C286.953 96.2963 286.781 96.4682 286.609 96.4682H281.279C280.591 96.4682 280.419 96.2963 280.419 95.7804V66.2037C280.419 65.6878 280.591 65.3439 281.107 65C281.451 64.6561 281.967 64.4841 282.482 64.4841H286.781C287.124 64.4841 287.296 64.4841 287.64 64.6561C287.984 64.828 288.156 64.828 288.328 65C288.5 65.1719 289.016 65.8598 289.703 67.2354L296.065 78.9286C296.237 79.2725 296.409 79.4444 296.753 79.4444C296.925 79.4444 297.096 79.4444 297.096 79.2725L304.661 65.5158C305.005 64.828 305.693 64.4841 306.553 64.4841H310.851C311.367 64.4841 311.883 64.6561 312.226 65C312.57 65.3439 312.914 65.6878 312.914 66.2037V96.1243H312.742ZM271.995 95.6084C271.995 95.9524 271.823 96.1243 271.651 96.4682C271.479 96.6402 271.135 96.8121 270.791 96.8121H265.461C265.117 96.8121 264.945 96.6402 264.602 96.4682C264.43 96.2963 264.258 95.9524 264.258 95.6084V94.2328C261.507 96.1243 258.412 97.1561 255.317 97.1561C252.051 97.1561 249.472 96.2963 247.924 94.4047C246.205 92.5132 245.517 89.246 245.517 84.4312V65.6878C245.517 65.3439 245.689 65.1719 245.861 64.828C246.033 64.6561 246.377 64.4841 246.721 64.4841H252.051C252.394 64.4841 252.566 64.6561 252.91 64.828C253.082 65 253.254 65.3439 253.254 65.6878V84.4312C253.254 86.8386 253.598 88.5582 254.286 89.5899C254.973 90.6217 256.177 90.9656 258.24 90.9656C259.787 90.9656 261.851 90.2778 264.773 88.7301V65.6878C264.773 65.3439 264.945 65.1719 265.117 64.828C265.289 64.6561 265.633 64.4841 265.977 64.4841H271.307C271.651 64.4841 271.823 64.6561 272.167 64.828C272.338 65 272.51 65.3439 272.51 65.6878V95.6084H271.995ZM249.472 52.1031H253.598C253.942 52.1031 254.286 52.2751 254.286 52.791C254.973 55.3703 256.521 56.5741 258.928 56.5741C261.335 56.5741 262.882 55.3703 263.57 52.791C263.742 52.2751 263.914 52.1031 264.258 52.1031H268.384C268.9 52.1031 269.072 52.2751 269.072 52.619C269.072 53.3069 268.728 54.3386 268.04 55.8862C267.352 57.2619 266.321 58.6375 264.773 59.6693C263.226 60.701 261.163 61.2169 258.928 61.2169C256.693 61.2169 254.63 60.701 253.082 59.6693C251.535 58.6375 250.331 57.4338 249.815 55.8862C249.128 54.5106 248.784 53.3069 248.784 52.619C248.784 52.2751 248.956 52.1031 249.472 52.1031ZM230.559 89.5899V82.5397H226.949C224.714 82.5397 223.166 82.8836 222.135 83.5714C221.103 84.2592 220.587 85.4629 220.587 87.5264V87.6984C220.587 89.0741 220.931 89.9338 221.447 90.4497C221.963 90.9656 223.166 91.3095 224.714 91.3095C226.605 91.3095 228.496 90.6217 230.559 89.5899ZM238.124 95.6084C238.124 95.9524 237.952 96.1243 237.78 96.4682C237.608 96.6402 237.265 96.8121 236.921 96.8121H232.107C231.763 96.8121 231.591 96.6402 231.247 96.4682C231.075 96.2963 230.903 95.9524 230.903 95.6084V94.7486C228.152 96.4682 225.401 97.328 222.822 97.328C219.556 97.328 217.149 96.4682 215.429 94.9206C213.71 93.373 212.85 90.9656 212.85 87.6984V87.5264C212.85 84.2592 213.882 81.6799 216.117 80.1322C218.352 78.4127 221.963 77.7248 226.777 77.7248H230.387V75.1455C230.387 73.4259 230.043 72.0502 229.184 71.5344C228.324 70.8465 227.121 70.5026 225.401 70.5026C223.682 70.5026 221.963 70.5026 220.415 70.6746L216.117 71.0185H215.773C215.085 71.0185 214.742 70.6746 214.742 69.9867V66.3756C214.742 66.0317 214.914 65.6878 215.257 65.5158C215.601 65.3439 216.805 65 219.04 64.828C221.275 64.4841 223.338 64.4841 225.573 64.4841C233.998 64.4841 238.124 68.0952 238.124 75.4894V95.6084ZM200.299 82.8836V78.4127C200.299 75.4894 199.784 73.4259 198.752 72.0502C197.72 70.8465 196.173 70.1587 194.11 70.1587C191.875 70.1587 189.984 70.3307 188.608 70.5026V90.4497C190.671 90.7936 192.391 90.7936 194.11 90.7936C196.173 90.7936 197.72 90.1058 198.752 88.9021C199.784 87.8703 200.299 85.8069 200.299 82.8836ZM207.864 82.8836C207.864 87.5264 206.661 90.9656 204.426 93.545C202.191 96.1243 198.752 97.328 194.11 97.328C192.391 97.328 190.671 97.1561 188.608 96.9841V107.13C188.608 107.474 188.436 107.645 188.264 107.989C188.092 108.161 187.748 108.333 187.405 108.333H182.075C181.731 108.333 181.559 108.161 181.215 107.989C181.043 107.817 180.871 107.474 180.871 107.13V67.0635C180.871 66.5476 181.043 66.0317 181.559 65.8598C181.903 65.5158 183.45 65.1719 186.201 64.828C188.78 64.3121 191.531 64.1402 194.11 64.1402C198.58 64.1402 202.019 65.3439 204.254 67.9233C206.661 70.3307 207.864 73.9418 207.864 78.5846V82.8836ZM172.962 63.9682V95.6084C172.962 95.9524 172.79 96.1243 172.619 96.4682C172.447 96.6402 172.103 96.8121 171.759 96.8121H166.085C165.741 96.8121 165.569 96.6402 165.226 96.4682C165.054 96.2963 165.054 95.9524 165.054 95.6084V63.9682C165.054 62.7645 164.882 62.0767 164.538 61.7328C164.194 61.3889 163.506 61.2169 162.647 61.2169H151.127C150.096 61.2169 149.58 61.3889 149.236 61.9047C148.892 62.2487 148.72 63.1084 148.72 64.1402V95.7804C148.72 96.1243 148.548 96.2963 148.376 96.6402C148.204 96.8121 147.861 96.9841 147.517 96.9841H141.843C141.499 96.9841 141.327 96.8121 140.983 96.6402C140.811 96.4682 140.639 96.1243 140.639 95.7804V63.9682C140.639 60.5291 141.499 57.9497 143.046 56.4021C144.594 54.8545 147.345 53.9947 150.955 53.9947H162.475C166.085 53.9947 168.836 54.8545 170.383 56.2301C172.103 57.9497 172.962 60.5291 172.962 63.9682Z" fill="white"/>
</mask>
<g mask="url(#mask1_26_1242)">
<path d="M577 52.1031H140.811V108.161H577V52.1031Z" fill="white"/>
</g>
</g>
<defs>
<linearGradient id="paint0_linear_26_1242" x1="56.9157" y1="6.99767" x2="54.631" y2="110.94" gradientUnits="userSpaceOnUse">
<stop stop-color="#EF7F1A"/>
<stop offset="1" stop-color="#C63523"/>
</linearGradient>
<clipPath id="clip0_26_1242">
<rect width="577" height="130" fill="white"/>
</clipPath>
</defs>
</svg>
