<svg width="577" height="130" viewBox="0 0 577 130" fill="none" xmlns="http://www.w3.org/2000/svg">
<g clip-path="url(#clip0_26_1511)">
<mask id="mask0_26_1511" style="mask-type:luminance" maskUnits="userSpaceOnUse" x="0" y="0" width="112" height="130">
<path d="M1.89124 53.4788H32.1511H76.8531H108.145C110.38 53.4788 110.895 54.5106 111.067 55.7143V94.2328C111.067 95.6085 111.411 97.1561 107.973 96.9841H77.025V126.733C77.025 128.452 76.5092 130 73.9303 130H34.5581C33.1827 129.828 32.8388 129.312 32.323 127.249V96.9841H3.43862C2.06317 96.9841 0.343862 96.6402 0 94.5767V55.1984C0.343862 53.9947 0.859654 53.6508 1.89124 53.4788ZM32.323 16.5079L12.551 22.3545L11.1755 17.8836L72.5548 0H77.025V49.0079H32.323V16.5079Z" fill="white"/>
</mask>
<g mask="url(#mask0_26_1511)">
<path d="M-2.69413e-05 -2.40747L-2.92285 130L111.239 132.407L114.162 -6.34193e-05L-2.69413e-05 -2.40747Z" fill="url(#paint0_linear_26_1511)"/>
</g>
<mask id="mask1_26_1511" style="mask-type:luminance" maskUnits="userSpaceOnUse" x="140" y="52" width="437" height="57">
<path d="M569.091 95.7805L563.418 71.7064C563.246 71.0186 562.73 70.5027 562.214 70.5027C561.526 70.5027 561.182 70.8467 561.011 71.7064L555.337 95.7805C555.165 96.4684 554.821 96.8123 554.305 96.8123H548.46C547.772 96.8123 547.428 96.4684 547.428 95.7805C547.428 95.7805 547.428 95.6086 547.428 95.4366L554.133 69.8149C555.165 65.8599 557.744 63.9684 562.042 63.9684C566.34 63.9684 568.919 65.8599 569.951 69.8149L576.828 95.7805C576.828 96.4684 576.484 96.8123 575.797 96.8123H570.123C569.607 96.8123 569.263 96.4684 569.091 95.7805ZM533.846 89.59V82.5398H530.235C528 82.5398 526.453 82.8837 525.421 83.5715C524.389 84.2594 523.874 85.4631 523.874 87.5266V87.6985C523.874 89.0742 524.217 89.934 524.733 90.4498C525.249 90.9657 526.453 91.3096 528 91.3096C529.891 91.3096 531.782 90.6218 533.846 89.59ZM541.41 95.6086C541.41 95.9525 541.239 96.1244 541.067 96.4683C540.895 96.6403 540.551 96.8123 540.207 96.8123H535.393C535.049 96.8123 534.877 96.6403 534.533 96.4683C534.361 96.2964 534.189 95.9525 534.189 95.6086V94.7488C531.439 96.4683 528.688 97.3281 526.109 97.3281C522.842 97.3281 520.435 96.4684 518.716 94.9207C516.996 93.3731 516.137 90.9657 516.137 87.6985V87.5266C516.137 84.2594 517.168 81.68 519.403 80.1324C521.638 78.4128 525.249 77.725 530.063 77.725H533.674V75.1456C533.674 73.426 533.33 72.0504 532.47 71.5345C531.61 70.8467 530.407 70.5027 528.688 70.5027C526.968 70.5027 525.249 70.5027 523.702 70.6747L519.403 71.0186H519.059C518.372 71.0186 518.028 70.6747 518.028 69.9869V66.3758C518.028 66.0318 518.2 65.6879 518.544 65.516C518.888 65.344 520.091 65.0001 522.326 64.8281C524.561 64.4842 526.624 64.4842 528.86 64.4842C537.284 64.4842 541.41 68.0953 541.41 75.4895V95.6086ZM500.147 79.7885L507.884 90.2779C510.635 93.889 511.838 95.7805 512.01 95.9525C512.01 96.1244 512.01 96.1244 512.01 96.2964C512.01 96.8123 511.666 96.9842 511.151 96.9842H504.102C503.414 96.9842 502.898 96.4684 502.21 95.4366L493.442 82.5398V95.6086C493.442 95.9525 493.27 96.2964 493.098 96.4683C492.926 96.6403 492.582 96.8123 492.238 96.8123H486.908C486.565 96.8123 486.393 96.6403 486.049 96.4683C485.877 96.2964 485.705 95.9525 485.705 95.6086V65.516C485.705 65.1721 485.877 65.0001 486.049 64.6562C486.221 64.4842 486.565 64.3123 486.908 64.3123H492.238C492.582 64.3123 492.754 64.4842 493.098 64.6562C493.27 64.8281 493.442 65.1721 493.442 65.516V78.0689L499.631 69.8149C502.038 66.5477 503.242 64.8281 503.414 64.8281C503.586 64.6562 503.758 64.6562 503.93 64.4842C504.102 64.3123 504.445 64.3123 504.617 64.3123H510.979C511.495 64.3123 511.838 64.4842 511.838 65.0001C511.838 65.1721 511.838 65.344 511.666 65.516L500.147 79.7885ZM478.484 95.6086C478.484 95.9525 478.312 96.1244 478.14 96.4683C477.968 96.6403 477.624 96.8123 477.28 96.8123H471.95C471.607 96.8123 471.435 96.6403 471.091 96.4683C470.919 96.2964 470.747 95.9525 470.747 95.6086V94.2329C467.996 96.1244 464.901 97.1562 461.806 97.1562C458.54 97.1562 455.961 96.2964 454.413 94.4049C452.694 92.5133 452.006 89.2461 452.006 84.4313V65.6879C452.006 65.344 452.178 65.1721 452.35 64.8281C452.522 64.6562 452.866 64.4842 453.21 64.4842H458.54C458.884 64.4842 459.056 64.6562 459.399 64.8281C459.571 65.0001 459.743 65.344 459.743 65.6879V84.4313C459.743 86.8387 460.087 88.5583 460.775 89.59C461.463 90.6218 462.666 90.9657 464.729 90.9657C466.277 90.9657 468.34 90.2779 471.263 88.7303V65.6879C471.263 65.344 471.435 65.1721 471.607 64.8281C471.778 64.6562 472.122 64.4842 472.466 64.4842H477.796C478.14 64.4842 478.312 64.6562 478.656 64.8281C478.828 65.0001 479 65.344 479 65.6879V95.6086H478.484ZM435.157 90.6218L430.687 73.7699C430.171 72.2223 429.999 71.3625 429.999 71.1906C429.827 71.0186 429.827 71.0186 429.655 70.8467C429.483 70.8467 429.312 70.6747 429.14 70.6747C428.968 70.6747 428.796 70.6747 428.624 70.8467C428.452 70.8467 428.452 71.0186 428.28 71.1906C428.28 71.3625 427.936 72.3943 427.42 74.4578L423.466 90.6218H435.157ZM439.799 96.8123H418.136V103.519C418.136 103.863 417.964 104.034 417.792 104.378C417.62 104.55 417.276 104.722 416.933 104.722H411.603C411.259 104.722 411.087 104.55 410.743 104.378C410.571 104.206 410.399 103.863 410.399 103.519V91.6535C410.399 91.3096 410.571 91.1377 410.743 90.7937C410.915 90.6218 411.259 90.4498 411.603 90.4498H415.557L421.059 69.8149C422.09 65.8599 424.841 63.9684 428.968 63.9684C433.266 63.9684 435.845 65.8599 436.877 69.8149L442.722 90.4498H445.989C446.333 90.4498 446.505 90.6218 446.849 90.7937C447.02 90.9657 447.192 91.3096 447.192 91.6535V103.519C447.192 103.863 447.02 104.034 446.849 104.378C446.677 104.55 446.333 104.722 445.989 104.722H440.659C440.315 104.722 440.143 104.55 439.799 104.378C439.627 104.206 439.456 103.863 439.456 103.519V96.8123H439.799ZM399.224 77.8969V77.725C399.224 75.4895 398.708 73.7699 397.504 72.5662C396.473 71.3625 394.925 70.6747 393.206 70.6747C391.315 70.6747 389.939 71.3625 388.736 72.5662C387.532 73.7699 387.017 75.4895 387.017 77.725V77.8969H399.224ZM406.961 81.8519C406.961 82.8837 406.617 83.2276 405.757 83.2276H387.017V83.3996C387.017 85.4631 387.532 87.1826 388.564 88.5583C389.596 89.934 391.315 90.6218 393.894 90.6218C395.785 90.6218 397.504 90.6218 399.396 90.4498L404.382 90.1059H404.554C405.241 90.1059 405.585 90.4498 405.585 90.9657V94.7488C405.585 95.4366 405.413 95.9525 405.069 96.1244C404.725 96.2964 403.522 96.4683 401.459 96.8123C399.396 97.1562 396.645 97.3281 393.378 97.3281C389.424 97.3281 386.157 96.1244 383.406 93.5451C380.827 91.1377 379.452 87.5266 379.452 82.8837V78.5848C379.452 74.1139 380.655 70.5027 383.062 67.9234C385.469 65.344 388.908 63.9684 393.206 63.9684C397.504 63.9684 400.771 65.344 403.178 67.9234C405.585 70.5027 406.789 74.1139 406.789 78.5848V81.8519H406.961ZM372.402 95.9525C372.402 96.4683 372.059 96.8123 371.371 96.8123H365.525C365.353 96.8123 365.009 96.6403 364.837 96.4683C364.666 96.2964 364.494 95.9525 364.494 95.6086V68.9551C364.494 68.6112 364.494 68.4393 364.322 68.4393C364.322 68.4393 363.978 69.1271 363.29 70.3308L358.648 79.6165C358.304 80.4763 357.616 80.8202 356.757 80.8202H350.911C350.051 80.8202 349.364 80.4763 349.02 79.7885L344.722 71.3625C343.69 69.299 343.174 68.4393 343.174 68.4393C343.002 68.4393 343.002 68.6112 343.002 68.9551V95.6086C343.002 95.9525 342.83 96.1244 342.658 96.4683C342.486 96.6403 342.315 96.8123 341.971 96.8123H336.125C335.437 96.8123 335.093 96.4683 335.093 95.9525V56.4022C335.093 55.7144 335.265 55.1985 335.781 54.8546C336.297 54.3387 336.813 54.1668 337.329 54.1668H341.971C343.002 54.1668 343.69 54.6826 344.034 55.5424L349.88 67.5795C351.771 71.5345 352.802 73.598 352.974 73.7699C353.146 73.9419 353.146 74.1139 353.318 74.1139C353.49 74.1139 353.662 73.9419 353.834 73.598L361.055 59.1535C362.259 56.7461 362.946 55.3705 363.118 55.1985C363.29 55.0266 363.462 54.8546 363.806 54.6826C364.15 54.5107 364.494 54.5107 364.837 54.5107H369.48C370.167 54.5107 370.683 54.6826 371.027 55.1985C371.543 55.7144 371.715 56.2303 371.715 56.7461V95.9525H372.402ZM312.742 96.1244C312.742 96.6403 312.399 96.8123 311.883 96.8123H306.553C306.381 96.8123 306.209 96.6403 306.037 96.4683C305.865 96.2964 305.865 96.1244 305.865 95.9525V75.6615C305.865 75.3176 305.865 75.3176 305.693 75.3176C305.693 75.3176 305.521 75.3176 305.521 75.4895L302.599 80.8202C301.567 82.8837 300.879 83.9154 300.879 83.9154C300.879 84.0874 300.535 84.0874 300.363 84.2594C300.02 84.4313 299.848 84.4313 299.504 84.4313H294.174C293.314 84.4313 292.798 84.0874 292.455 83.7435L287.984 75.4895C287.984 75.4895 287.984 75.4895 287.812 75.3176L287.641 75.1456C287.469 75.1456 287.469 75.3176 287.469 75.4895V95.6086C287.469 95.7805 287.297 95.9525 287.125 96.1244C286.953 96.2964 286.781 96.4683 286.609 96.4683H281.279C280.591 96.4683 280.419 96.2964 280.419 95.7805V66.2038C280.419 65.6879 280.591 65.344 281.107 65.0001C281.451 64.6562 281.967 64.4842 282.483 64.4842H286.781C287.125 64.4842 287.297 64.4842 287.641 64.6562C287.984 64.8281 288.156 64.8281 288.328 65.0001C288.5 65.1721 289.016 65.8599 289.704 67.2355L296.065 78.9287C296.237 79.2726 296.409 79.4445 296.753 79.4445C296.925 79.4445 297.097 79.4445 297.097 79.2726L304.662 65.516C305.006 64.8281 305.693 64.4842 306.553 64.4842H310.851C311.367 64.4842 311.883 64.6562 312.227 65.0001C312.571 65.344 312.914 65.6879 312.914 66.2038V96.1244H312.742ZM271.995 95.6086C271.995 95.9525 271.823 96.1244 271.651 96.4683C271.479 96.6403 271.135 96.8123 270.791 96.8123H265.461C265.118 96.8123 264.946 96.6403 264.602 96.4683C264.43 96.2964 264.258 95.9525 264.258 95.6086V94.2329C261.507 96.1244 258.412 97.1562 255.318 97.1562C252.051 97.1562 249.472 96.2964 247.924 94.4049C246.205 92.5133 245.517 89.2461 245.517 84.4313V65.6879C245.517 65.344 245.689 65.1721 245.861 64.8281C246.033 64.6562 246.377 64.4842 246.721 64.4842H252.051C252.395 64.4842 252.567 64.6562 252.911 64.8281C253.082 65.0001 253.254 65.344 253.254 65.6879V84.4313C253.254 86.8387 253.598 88.5583 254.286 89.59C254.974 90.6218 256.177 90.9657 258.24 90.9657C259.788 90.9657 261.851 90.2779 264.774 88.7303V65.6879C264.774 65.344 264.946 65.1721 265.118 64.8281C265.29 64.6562 265.633 64.4842 265.977 64.4842H271.307C271.651 64.4842 271.823 64.6562 272.167 64.8281C272.339 65.0001 272.511 65.344 272.511 65.6879V95.6086H271.995ZM249.472 52.1033H253.598C253.942 52.1033 254.286 52.2752 254.286 52.7911C254.974 55.3705 256.521 56.5742 258.928 56.5742C261.335 56.5742 262.882 55.3705 263.57 52.7911C263.742 52.2752 263.914 52.1033 264.258 52.1033H268.384C268.9 52.1033 269.072 52.2752 269.072 52.6191C269.072 53.307 268.728 54.3387 268.04 55.8863C267.353 57.262 266.321 58.6377 264.774 59.6694C263.226 60.7012 261.163 61.217 258.928 61.217C256.693 61.217 254.63 60.7012 253.082 59.6694C251.535 58.6377 250.332 57.434 249.816 55.8863C249.128 54.5107 248.784 53.307 248.784 52.6191C248.784 52.2752 248.956 52.1033 249.472 52.1033ZM230.559 89.59V82.5398H226.949C224.714 82.5398 223.166 82.8837 222.135 83.5715C221.103 84.2594 220.588 85.4631 220.588 87.5266V87.6985C220.588 89.0742 220.931 89.934 221.447 90.4498C221.963 90.9657 223.166 91.3096 224.714 91.3096C226.605 91.3096 228.496 90.6218 230.559 89.59ZM238.124 95.6086C238.124 95.9525 237.953 96.1244 237.781 96.4683C237.609 96.6403 237.265 96.8123 236.921 96.8123H232.107C231.763 96.8123 231.591 96.6403 231.247 96.4683C231.075 96.2964 230.903 95.9525 230.903 95.6086V94.7488C228.152 96.4683 225.402 97.3281 222.823 97.3281C219.556 97.3281 217.149 96.4684 215.43 94.9207C213.71 93.3731 212.851 90.9657 212.851 87.6985V87.5266C212.851 84.2594 213.882 81.68 216.117 80.1324C218.352 78.4128 221.963 77.725 226.777 77.725H230.388V75.1456C230.388 73.426 230.044 72.0504 229.184 71.5345C228.324 70.8467 227.121 70.5027 225.402 70.5027C223.682 70.5027 221.963 70.5027 220.416 70.6747L216.117 71.0186H215.773C215.086 71.0186 214.742 70.6747 214.742 69.9869V66.3758C214.742 66.0318 214.914 65.6879 215.258 65.516C215.601 65.344 216.805 65.0001 219.04 64.8281C221.275 64.4842 223.338 64.4842 225.573 64.4842C233.998 64.4842 238.124 68.0953 238.124 75.4895V95.6086ZM200.3 82.8837V78.4128C200.3 75.4895 199.784 73.426 198.752 72.0504C197.721 70.8467 196.173 70.1588 194.11 70.1588C191.875 70.1588 189.984 70.3308 188.608 70.5027V90.4498C190.672 90.7937 192.391 90.7937 194.11 90.7937C196.173 90.7937 197.721 90.1059 198.752 88.9022C199.784 87.8705 200.3 85.807 200.3 82.8837ZM207.865 82.8837C207.865 87.5266 206.661 90.9657 204.426 93.5451C202.191 96.1244 198.752 97.3281 194.11 97.3281C192.391 97.3281 190.672 97.1562 188.608 96.9842V107.13C188.608 107.474 188.436 107.646 188.264 107.99C188.093 108.161 187.749 108.333 187.405 108.333H182.075C181.731 108.333 181.559 108.161 181.215 107.99C181.043 107.818 180.871 107.474 180.871 107.13V67.0636C180.871 66.5477 181.043 66.0318 181.559 65.8599C181.903 65.516 183.45 65.1721 186.201 64.8281C188.78 64.3123 191.531 64.1403 194.11 64.1403C198.58 64.1403 202.019 65.344 204.254 67.9234C206.661 70.3308 207.865 73.9419 207.865 78.5848V82.8837ZM172.963 63.9684V95.6086C172.963 95.9525 172.791 96.1244 172.619 96.4683C172.447 96.6403 172.103 96.8123 171.759 96.8123H166.085C165.742 96.8123 165.57 96.6403 165.226 96.4683C165.054 96.2964 165.054 95.9525 165.054 95.6086V63.9684C165.054 62.7646 164.882 62.0768 164.538 61.7329C164.194 61.389 163.506 61.217 162.647 61.217H151.127C150.096 61.217 149.58 61.389 149.236 61.9049C148.892 62.2488 148.72 63.1086 148.72 64.1403V95.7805C148.72 96.1244 148.548 96.2964 148.377 96.6403C148.205 96.8123 147.861 96.9842 147.517 96.9842H141.843C141.499 96.9842 141.327 96.8123 140.984 96.6403C140.812 96.4684 140.64 96.1244 140.64 95.7805V63.9684C140.64 60.5292 141.499 57.9498 143.047 56.4022C144.594 54.8546 147.345 53.9948 150.955 53.9948H162.475C166.085 53.9948 168.836 54.8546 170.384 56.2303C172.103 57.9498 172.963 60.5292 172.963 63.9684Z" fill="white"/>
</mask>
<g mask="url(#mask1_26_1511)">
<path d="M577 52.1033H140.812V108.161H577V52.1033Z" fill="url(#paint1_linear_26_1511)"/>
</g>
</g>
<defs>
<linearGradient id="paint0_linear_26_1511" x1="56.9157" y1="6.99755" x2="54.631" y2="110.94" gradientUnits="userSpaceOnUse">
<stop stop-color="#EF7F1A"/>
<stop offset="1" stop-color="#C63523"/>
</linearGradient>
<linearGradient id="paint1_linear_26_1511" x1="358.834" y1="57.3051" x2="358.834" y2="104.659" gradientUnits="userSpaceOnUse">
<stop stop-color="#6F4E99"/>
<stop offset="0.38" stop-color="#4F3A75"/>
<stop offset="1" stop-color="#2F2651"/>
</linearGradient>
<clipPath id="clip0_26_1511">
<rect width="577" height="130" fill="white"/>
</clipPath>
</defs>
</svg>
