<svg width="227" height="158" viewBox="0 0 227 158" fill="none" xmlns="http://www.w3.org/2000/svg">
<path d="M104.53 0V69.3756H94.3077V29.7754L84.4861 58.9492H80.0764L70.2547 29.7754V69.3756H60.0322V0H69.1523L82.2812 39.8008L95.4101 0H104.53Z" fill="black"/>
<path d="M125.276 0H134.296L148.728 69.3756H138.004L135.298 53.8363H124.274L121.568 69.3756H110.844L125.276 0ZM133.694 44.2119L129.786 21.5546L125.877 44.2119H133.694Z" fill="black"/>
<path d="M155.042 0H170.476C180.598 0 187.613 7.21827 187.613 18.2462V51.1294C187.613 62.1574 180.598 69.3756 170.476 69.3756H155.042V0ZM170.275 59.7513C174.484 59.7513 177.391 57.0444 177.391 50.8287V18.547C177.391 12.3312 174.484 9.62436 170.275 9.62436H165.264V59.7513H170.275Z" fill="black"/>
<path d="M198.337 0H226.599V9.62436H208.559V28.3718H222.59V37.9962H208.559V59.7513H227.1V69.3756H198.337V0Z" fill="black"/>
<path d="M104.53 88.624V158H94.3077V118.399L84.4861 147.573H80.0764L70.2547 118.399V158H60.0322V88.624H69.1523L82.2812 128.425L95.4101 88.624H104.53Z" fill="black"/>
<path d="M116.958 88.624H145.22V98.2484H127.18V116.996H141.211V126.62H127.18V148.375H145.721V158H116.958V88.624Z" fill="black"/>
<path d="M155.743 88.624H171.177C181.299 88.624 188.315 95.8423 188.315 106.87V139.753C188.315 150.781 181.299 158 171.177 158H155.743V88.624ZM170.977 148.375C175.186 148.375 178.092 145.668 178.092 139.453V107.171C178.092 100.955 175.186 98.2484 170.977 98.2484H165.966V148.375H170.977Z" fill="black"/>
<path fill-rule="evenodd" clip-rule="evenodd" d="M2.70596 133.338V131.533C2.70596 127.824 5.01104 125.518 8.91965 125.518H11.5254V129.929H9.42075C8.2181 129.929 7.41634 130.53 7.41634 132.135V133.338H11.4252V137.749H7.41634V158H17.7391C14.9329 156.997 13.0287 154.291 13.0287 150.782V140.656C13.0287 136.044 16.1355 132.937 20.3448 132.937C24.5541 132.937 27.6609 136.044 27.6609 140.656V150.782C27.6609 154.391 25.7567 157.098 22.9506 158H31.3691V133.338H34.7766L35.3779 134.942H35.5784C36.5806 133.739 37.9837 133.338 39.5872 133.338H40.8901V0H0V133.338H2.70596ZM22.8503 140.756V150.581C22.8503 152.887 21.7479 153.99 20.3448 153.99C18.9417 153.99 17.8393 152.887 17.8393 150.581V140.756C17.8393 138.45 18.9417 137.348 20.3448 137.348C21.7479 137.348 22.8503 138.45 22.8503 140.756ZM35.879 140.355C36.0795 138.551 37.0817 137.749 38.3845 137.749H40.6896V158H35.879V140.355ZM0 137.749H2.70596V158H0V137.749Z" fill="url(#paint0_linear_174_504)"/>
<defs>
<linearGradient id="paint0_linear_174_504" x1="20.445" y1="0" x2="20.445" y2="158" gradientUnits="userSpaceOnUse">
<stop stop-color="#00DCE3"/>
<stop offset="0.411458" stop-color="#0076BF"/>
<stop offset="0.817708" stop-color="#752A93"/>
</linearGradient>
</defs>
</svg>
